HIERARCHY
ROOT Hips
{
	OFFSET 0.00000 0.00000 0.00000
	CHANNELS 6 Xposition Yposition Zposition Zrotation Yrotation Xrotation 
	JOINT LHipJoint
	{
		OFFSET 0 0 0
		CHANNELS 3 Zrotation Yrotation Xrotation
		JOINT LeftUpLeg
		{
			OFFSET 1.09156 -1.61406 0.76500
			CHANNELS 3 Zrotation Yrotation Xrotation
			JOINT LeftLeg
			{
				OFFSET 2.33750 -6.42225 0.00000
				CHANNELS 3 Zrotation Yrotation Xrotation
				JOINT LeftFoot
				{
					OFFSET 2.49247 -6.84800 0.00000
					CHANNELS 3 Zrotation Yrotation Xrotation
					JOINT LeftToeBase
					{
						OFFSET 0.15312 -0.42069 1.45461
						CHANNELS 3 Zrotation Yrotation Xrotation
						End Site
						{
							OFFSET 0.00000 -0.00000 0.77046
						}
					}
				}
			}
		}
	}
	JOINT RHipJoint
	{
		OFFSET 0 0 0
		CHANNELS 3 Zrotation Yrotation Xrotation
		JOINT RightUpLeg
		{
			OFFSET -0.99883 -1.61406 0.76500
			CHANNELS 3 Zrotation Yrotation Xrotation
			JOINT RightLeg
			{
				OFFSET -2.36877 -6.50815 0.00000
				CHANNELS 3 Zrotation Yrotation Xrotation
				JOINT RightFoot
				{
					OFFSET -2.53452 -6.96353 0.00000
					CHANNELS 3 Zrotation Yrotation Xrotation
					JOINT RightToeBase
					{
						OFFSET -0.13156 -0.36145 1.63237
						CHANNELS 3 Zrotation Yrotation Xrotation
						End Site
						{
							OFFSET -0.00000 -0.00000 0.84979
						}
					}
				}
			}
		}
	}
	JOINT LowerBack
	{
		OFFSET 0 0 0
		CHANNELS 3 Zrotation Yrotation Xrotation
		JOINT Spine
		{
			OFFSET -0.02431 1.98242 -0.13616
			CHANNELS 3 Zrotation Yrotation Xrotation
			JOINT Spine1
			{
				OFFSET 0.03629 1.98974 -0.02954
				CHANNELS 3 Zrotation Yrotation Xrotation
				JOINT Neck
				{
					OFFSET 0 0 0
					CHANNELS 3 Zrotation Yrotation Xrotation
					JOINT Neck1
					{
						OFFSET 0.09349 1.40783 0.22333
						CHANNELS 3 Zrotation Yrotation Xrotation
						JOINT Head
						{
							OFFSET -0.04273 1.44500 -0.06495
							CHANNELS 3 Zrotation Yrotation Xrotation
							End Site
							{
								OFFSET -0.02251 1.44600 -0.04544
							}
						}
					}
				}
				JOINT LeftShoulder
				{
					OFFSET 0 0 0
					CHANNELS 3 Zrotation Yrotation Xrotation
					JOINT LeftArm
					{
						OFFSET 3.49137 0.85126 -0.29740
						CHANNELS 3 Zrotation Yrotation Xrotation
						JOINT LeftForeArm
						{
							OFFSET 5.06035 -0.00000 0.00000
							CHANNELS 3 Zrotation Yrotation Xrotation
							JOINT LeftHand
							{
								OFFSET 3.14780 -0.00000 0.00000
								CHANNELS 3 Zrotation Yrotation Xrotation
								JOINT LeftFingerBase
								{
									OFFSET 0 0 0
									CHANNELS 3 Zrotation Yrotation Xrotation
									JOINT LeftHandIndex1
									{
										OFFSET 0.60675 -0.00000 0.00000
										CHANNELS 3 Zrotation Yrotation Xrotation
										End Site
										{
											OFFSET 0.48918 -0.00000 0.00000
										}
									}
								}
								JOINT LThumb
								{
									OFFSET 0 0 0
									CHANNELS 3 Zrotation Yrotation Xrotation
									End Site
									{
										OFFSET 0.49664 -0.00000 0.49664
									}
								}
							}
						}
					}
				}
				JOINT RightShoulder
				{
					OFFSET 0 0 0
					CHANNELS 3 Zrotation Yrotation Xrotation
					JOINT RightArm
					{
						OFFSET -3.28101 0.69707 0.00747
						CHANNELS 3 Zrotation Yrotation Xrotation
						JOINT RightForeArm
						{
							OFFSET -5.12273 -0.00000 -0.00000
							CHANNELS 3 Zrotation Yrotation Xrotation
							JOINT RightHand
							{
								OFFSET -3.42200 -0.00000 0.00000
								CHANNELS 3 Zrotation Yrotation Xrotation
								JOINT RightFingerBase
								{
									OFFSET 0 0 0
									CHANNELS 3 Zrotation Yrotation Xrotation
									JOINT RightHandIndex1
									{
										OFFSET -0.70460 -0.00000 0.00000
										CHANNELS 3 Zrotation Yrotation Xrotation
										End Site
										{
											OFFSET -0.56807 -0.00000 0.00000
										}
									}
								}
								JOINT RThumb
								{
									OFFSET 0 0 0
									CHANNELS 3 Zrotation Yrotation Xrotation
									End Site
									{
										OFFSET -0.57674 -0.00000 0.57674
									}
								}
							}
						}
					}
				}
			}
		}
	}
}
MOTION
Frames: 15
Frame Time: .0083333
34.1250 15.3110 1.9021 130.7790 78.7497 164.1880 0.0000 0.0000 0.0000 -9.7813 -29.1360 -98.6950 19.0460 19.9782 87.2097 0.3876 -14.6968 -14.2511 5.4270 13.8491 42.6364 0.0000 0.0000 0.0000 16.1618 12.5850 -35.7029 -7.3932 -15.6543 50.3462 -3.9734 2.0926 -37.3409 -0.0972 2.0103 -5.5342 5.2944 -0.4088 45.7366 0.8372 3.7071 10.6671 -3.4972 2.3111 -8.8523 -2.3937 -5.0677 -13.3392 2.4474 -6.6729 13.1949 0.5434 -3.1197 6.3638 0.0000 0.0000 0.0000 -40.2532 -7.4175 -9.9545 39.5624 -47.8085 -18.1144 -0.0000 0.0000 -10.4330 31.2137 52.8248 25.7720 -7.1250 0.0000 -0.0000 -63.3400 83.6541 -57.5017 0.0000 0.0000 0.0000 45.5684 42.7596 -25.9571 -15.0733 24.2482 -3.2560 0.0000 -0.0000 -7.3380 -70.8941 40.0418 -61.7007 7.1250 -0.0000 -0.0000 -16.7722 36.8162 -23.9731
34.1214 15.3218 1.9102 130.3630 78.2188 163.6840 0.0000 0.0000 0.0000 -10.5718 -29.3824 -98.1605 18.9114 19.9716 86.8156 0.3556 -15.0849 -14.1518 5.5182 13.9447 43.0162 0.0000 0.0000 0.0000 15.7991 12.7056 -35.3401 -7.3137 -15.5904 50.0509 -3.9808 1.8325 -37.4389 -0.0823 1.8504 -5.0925 5.5518 -0.4289 45.5711 0.9370 3.8076 10.7009 -3.5576 2.3626 -8.7537 -2.4004 -5.2747 -13.2704 2.8053 -7.0079 13.4299 0.6237 -3.2477 6.4495 -0.0000 0.0000 0.0000 -40.4773 -7.0040 -10.9610 37.7184 -46.6585 -16.7605 -0.0000 0.0000 -10.8631 31.0851 53.0566 25.7268 -7.1250 0.0000 -0.0000 -65.3302 83.6320 -59.3811 -0.0000 0.0000 0.0000 44.9293 43.9607 -26.3753 -15.0936 24.2763 -3.2643 0.0000 -0.0000 -6.8010 -71.4663 40.1233 -62.5155 7.1250 -0.0000 -0.0000 -17.0137 37.3810 -24.3549
34.1262 15.3300 1.9154 129.3960 77.8259 162.5450 0.0000 0.0000 0.0000 -11.5072 -29.5022 -97.5369 18.8063 19.9658 86.5080 0.3489 -15.4511 -14.2804 5.5067 13.9326 42.9681 0.0000 0.0000 0.0000 15.3910 12.8389 -34.8296 -7.2329 -15.5249 49.7497 -3.9878 1.3755 -37.5862 -0.0805 1.8298 -5.0356 5.6388 -0.3321 45.4880 1.0645 3.9815 10.7584 -3.5340 2.4474 -8.6568 -2.4948 -5.4801 -13.2484 3.1348 -7.3192 13.6503 0.7100 -3.3700 6.5414 0.0000 -0.0000 0.0000 -40.7733 -6.5336 -11.8882 36.1408 -45.6097 -15.6230 -0.0000 0.0000 -11.3981 31.5148 52.6578 25.9881 -7.1250 0.0000 -0.0000 -62.0031 83.7593 -56.3281 0.0000 -0.0000 0.0000 44.1213 45.2022 -26.5647 -15.0174 24.1704 -3.2331 0.0000 -0.0000 -6.8230 -72.0810 40.2114 -63.3957 7.1250 -0.0000 -0.0000 -17.2739 37.9917 -24.7642
34.1212 15.3277 1.9258 129.0610 77.4550 162.2910 0.0000 0.0000 0.0000 -12.1300 -29.6168 -97.4087 18.7313 19.9614 86.2883 0.3109 -15.6805 -14.0579 5.6435 14.0738 43.5337 0.0000 0.0000 0.0000 15.0992 13.0105 -34.6136 -7.1419 -15.4502 49.4089 -3.9845 0.4623 -37.8119 -0.0941 1.9786 -5.4465 5.7602 -0.1614 45.1122 1.2843 4.2321 10.7852 -3.4550 2.5587 -8.5163 -2.5498 -5.6914 -13.3165 3.2718 -7.6151 13.9863 0.7265 -3.4944 6.6774 0.0000 0.0000 0.0000 -41.2093 -6.0973 -12.7683 34.8204 -44.6835 -14.6869 -0.0000 0.0000 -11.7300 31.5864 52.3810 25.9677 -7.1250 0.0000 -0.0000 -59.5413 83.7334 -53.9679 0.0000 0.0000 0.0000 43.4213 46.3687 -26.6300 -15.0827 24.2612 -3.2599 0.0000 -0.0000 -7.0600 -72.3251 40.1329 -63.6931 7.1250 -0.0000 -0.0000 -17.4425 38.1454 -25.0210
34.1090 15.3212 1.9401 130.1280 77.0343 163.6160 0.0000 0.0000 0.0000 -12.3186 -29.8522 -97.6032 18.6683 19.9574 86.1038 0.2547 -15.7962 -13.6059 5.9911 14.4197 44.9461 0.0000 0.0000 0.0000 15.0662 13.1032 -34.7102 -7.0506 -15.3744 49.0655 -3.9596 -0.2323 -37.8893 -0.1087 2.1254 -5.8525 6.0816 -0.0597 44.4354 1.6192 4.4703 10.7962 -3.3399 2.6616 -8.3065 -2.6081 -5.8739 -13.2631 3.3554 -7.8618 14.1723 0.7364 -3.6037 6.7414 0.0000 0.0000 0.0000 -41.6656 -5.5648 -13.5474 33.6248 -43.8048 -13.8527 -0.0000 0.0000 -11.8853 31.3414 52.2027 25.6979 -7.1250 0.0000 -0.0000 -57.9082 83.5775 -52.2831 0.0000 0.0000 0.0000 43.0212 47.5243 -26.5103 -15.3976 24.6971 -3.3903 0.0000 -0.0000 -7.3440 -71.9948 39.9608 -63.1581 7.1250 -0.0000 -0.0000 -17.3723 37.7157 -24.9023
34.1155 15.3324 1.9393 132.1660 76.5913 165.1090 0.0000 0.0000 0.0000 -12.7843 -30.1226 -96.6262 18.6036 19.9532 85.9142 0.2791 -15.8132 -13.8403 5.8933 14.3241 44.5519 0.0000 0.0000 0.0000 15.4307 12.6753 -33.9500 -6.9510 -15.2905 48.6889 -4.0001 -0.2006 -38.0757 -0.1206 2.2388 -6.1661 6.7796 -0.2286 44.6316 1.9968 4.6697 10.8385 -3.3698 2.7580 -8.2722 -2.5443 -6.0524 -13.1257 3.2047 -8.0864 14.2679 0.6586 -3.7182 6.7461 -0.0000 -0.0000 0.0000 -42.1152 -4.9718 -14.1829 32.4917 -42.9357 -13.0746 -0.0000 0.0000 -11.8212 31.0167 51.9065 25.3232 -7.1250 0.0000 -0.0000 -55.3744 83.3434 -49.6941 -0.0000 -0.0000 0.0000 42.6239 48.5765 -26.0736 -15.7507 25.1815 -3.5392 0.0000 -0.0000 -8.1590 -72.2337 40.2735 -63.6340 7.1250 -0.0000 -0.0000 -17.3159 38.1760 -24.8326
34.1200 15.3473 1.9423 133.4110 76.1047 166.0120 0.0000 0.0000 0.0000 -13.3860 -30.3834 -95.8271 18.5123 19.9468 85.6465 0.3340 -15.8377 -14.3501 5.6641 14.0948 43.6184 0.0000 0.0000 0.0000 15.5801 12.2863 -33.4491 -6.8697 -15.2212 48.3799 -4.0012 -0.3249 -38.1175 -0.1516 2.5091 -6.9149 7.2905 -0.3154 44.5872 2.3554 4.8548 10.8907 -3.3131 2.8486 -8.1747 -2.5526 -6.2343 -13.0742 3.1107 -8.3107 14.4561 0.6063 -3.8284 6.8005 0.0000 0.0000 0.0000 -42.5269 -4.4078 -14.8477 31.3901 -42.0555 -12.3303 -0.0000 0.0000 -11.5283 30.4893 51.7356 24.8110 -7.1250 0.0000 -0.0000 -54.0558 83.0461 -48.2022 0.0000 0.0000 0.0000 42.2498 49.5650 -25.1827 -16.0965 25.6513 -3.6876 0.0000 -0.0000 -9.5460 -72.4925 40.6234 -64.1504 7.1250 -0.0000 -0.0000 -17.2448 38.6792 -24.7405
34.1189 15.3609 1.9556 133.2740 75.5721 165.9090 0.0000 0.0000 0.0000 -14.1246 -30.6189 -95.4136 18.3899 19.9377 85.2877 0.2563 -15.7923 -13.6191 6.2887 14.7024 46.1295 0.0000 0.0000 0.0000 15.3175 12.0640 -33.4104 -6.7969 -15.1585 48.1021 -3.9274 -0.4919 -37.8097 -0.1218 2.2500 -6.1970 7.4290 -0.2071 44.2266 2.6310 5.0458 10.9058 -3.1571 2.9350 -8.0579 -2.7530 -6.4317 -13.0290 3.3546 -8.5763 14.6710 0.6862 -3.9392 6.8903 -0.0000 -0.0000 0.0000 -42.8873 -3.8891 -15.4630 30.3401 -41.1831 -11.6329 -0.0000 0.0000 -11.1519 29.8652 51.7741 24.2798 -7.1250 0.0000 -0.0000 -54.4554 82.7737 -48.3334 -0.0000 -0.0000 0.0000 42.1225 50.4386 -23.8783 -16.5729 26.2913 -3.8963 0.0000 -0.0000 -11.3960 -72.0581 40.8522 -63.6636 7.1250 -0.0000 -0.0000 -16.8937 38.4767 -24.2110
34.1133 15.3654 1.9689 133.0780 74.9995 165.9510 0.0000 0.0000 0.0000 -14.7032 -30.9402 -95.2868 18.2670 19.9278 84.9273 0.2461 -16.0378 -13.6647 6.3497 14.7589 46.3698 0.0000 0.0000 0.0000 14.9783 11.8545 -33.6376 -6.7384 -15.1076 47.8779 -3.8297 -0.7084 -37.3984 -0.1283 2.3088 -6.3600 7.4899 0.0023 43.6815 2.9801 5.3014 10.8617 -2.9087 3.0404 -7.9659 -3.1039 -6.6607 -12.9726 3.7536 -8.8817 14.8680 0.8351 -4.0642 6.9898 0.0000 0.0000 0.0000 -43.3442 -3.4269 -15.9882 29.3777 -40.3540 -11.0044 -0.0000 0.0000 -10.5715 29.4587 51.6564 23.8930 -7.1250 0.0000 -0.0000 -53.6737 82.5478 -47.4104 0.0000 0.0000 0.0000 42.0834 51.1623 -22.5829 -17.1335 27.0334 -4.1478 0.0000 -0.0000 -13.1240 -71.7971 41.2470 -63.4915 7.1250 -0.0000 -0.0000 -16.5339 38.5592 -23.6778
34.1118 15.3704 1.9772 133.5200 74.5389 166.5020 0.0000 0.0000 0.0000 -15.0805 -31.2024 -95.1326 18.1659 19.9192 84.6306 0.2310 -16.1655 -13.6003 6.3710 14.7785 46.4532 0.0000 0.0000 0.0000 14.9038 11.5741 -33.6634 -6.6808 -15.0571 47.6563 -3.8026 -1.0187 -37.3619 -0.1593 2.5715 -7.0879 7.7116 0.1406 43.2374 3.3531 5.5586 10.8258 -2.7161 3.1493 -7.8799 -3.5366 -6.8647 -12.9938 4.1519 -9.1386 15.0750 0.9986 -4.1693 7.1104 -0.0000 0.0000 0.0000 -43.7091 -2.8686 -16.5314 28.4497 -39.5270 -10.4087 -0.0000 0.0000 -9.9922 29.3589 51.2384 23.6839 -7.1250 0.0000 -0.0000 -50.7441 82.3427 -44.5384 -0.0000 0.0000 0.0000 42.0403 52.0018 -21.4201 -17.6739 27.7376 -4.3964 0.0000 -0.0000 -14.2720 -71.6633 41.3097 -63.3402 7.1250 -0.0000 -0.0000 -16.4312 38.4928 -23.5233
34.1130 15.3815 1.9846 134.1720 74.1380 167.0790 0.0000 0.0000 0.0000 -15.4571 -31.3830 -94.7676 18.0735 19.9108 84.3592 0.2370 -16.1850 -13.6669 6.3000 14.7129 46.1741 0.0000 0.0000 0.0000 15.0098 11.1135 -33.4732 -6.6193 -15.0027 47.4193 -3.7887 -1.5892 -37.4777 -0.2164 2.9944 -8.2632 8.0385 0.1901 43.0075 3.6659 5.7762 10.7974 -2.6279 3.2444 -7.8319 -3.8043 -7.0397 -12.9786 4.2821 -9.3419 15.2470 1.0582 -4.2638 7.1917 -0.0000 -0.0000 0.0000 -43.9326 -2.2025 -17.0920 27.5731 -38.7203 -9.8555 -0.0000 0.0000 -9.5125 29.2372 50.8436 23.4623 -7.1250 0.0000 -0.0000 -48.1439 82.1178 -41.9800 -0.0000 -0.0000 0.0000 42.1466 52.9246 -20.1546 -18.2649 28.4950 -4.6749 0.0000 -0.0000 -15.2340 -71.5945 41.3387 -63.2612 7.1250 -0.0000 -0.0000 -16.3805 38.4572 -23.4470
34.1117 15.3901 1.9939 134.2840 73.7163 167.1530 0.0000 0.0000 0.0000 -15.9428 -31.5733 -94.3609 17.9740 19.9013 84.0671 0.2442 -16.3233 -13.8123 6.3115 14.7236 46.2195 0.0000 0.0000 0.0000 14.9633 10.6429 -33.3623 -6.5549 -14.9453 47.1699 -3.7947 -1.8147 -37.5822 -0.2276 3.0709 -8.4761 8.2075 0.2886 42.7540 3.9418 5.9769 10.7932 -2.4921 3.3346 -7.7634 -3.7451 -7.1958 -13.0923 3.9556 -9.5017 15.4762 0.9203 -4.3558 7.2727 0.0000 0.0000 0.0000 -44.2085 -1.6018 -17.8013 26.7534 -37.9430 -9.3471 -0.0000 0.0000 -8.8205 28.7793 50.5760 22.9917 -7.1250 0.0000 -0.0000 -46.7288 81.7850 -40.4293 0.0000 0.0000 0.0000 42.6169 53.7660 -18.6432 -19.0084 29.4291 -5.0350 0.0000 -0.0000 -16.0620 -73.2564 42.7108 -66.0815 7.1250 -0.0000 -0.0000 -16.3521 40.9039 -23.4537
34.1112 15.4042 2.0020 133.9440 73.3280 166.7760 0.0000 0.0000 0.0000 -16.5173 -31.7170 -93.9061 17.8659 19.8905 83.7494 0.2296 -16.4954 -13.7805 6.3107 14.7228 46.2161 0.0000 0.0000 0.0000 14.7722 10.2685 -33.2850 -6.4889 -14.8860 46.9138 -3.8465 -1.1949 -37.6331 -0.1565 2.5489 -7.0251 8.2987 0.3884 42.5106 4.1295 6.1339 10.8153 -2.3923 3.4094 -7.6696 -3.7270 -7.3133 -13.3991 3.7463 -9.6216 15.8323 0.8212 -4.4158 7.4353 -0.0000 0.0000 0.0000 -44.4151 -1.0321 -18.6445 25.9569 -37.1661 -8.8616 -0.0000 0.0000 -8.0601 28.4042 50.3499 22.6062 -7.1250 0.0000 -0.0000 -45.6296 81.5048 -39.2176 -0.0000 0.0000 0.0000 43.3812 54.6043 -16.9707 -19.7415 30.3296 -5.4002 0.0000 -0.0000 -16.6560 -75.3134 44.7277 -69.5730 7.1250 -0.0000 -0.0000 -15.9741 44.0086 -22.8981
34.1175 15.4217 2.0115 133.5200 73.0293 166.2760 0.0000 0.0000 0.0000 -17.0707 -31.7378 -93.4434 17.7673 19.8801 83.4596 0.2063 -16.7038 -13.6940 6.2506 14.6669 45.9794 0.0000 0.0000 0.0000 14.6101 9.9388 -33.1235 -6.4209 -14.8242 46.6484 -3.8799 -0.5966 -37.6101 -0.1115 2.1528 -5.9280 8.3110 0.5423 42.3604 4.2981 6.3274 10.7947 -2.2936 3.4935 -7.6554 -3.9018 -7.4042 -13.4874 3.8885 -9.7321 16.0458 0.8753 -4.4573 7.5418 0.0000 0.0000 0.0000 -44.5837 -0.3905 -19.5344 25.2678 -36.4765 -8.4486 -0.0000 0.0000 -7.3624 28.2502 50.0998 22.4022 -7.1250 0.0000 -0.0000 -44.2943 81.3072 -37.8708 0.0000 0.0000 0.0000 44.1488 55.4116 -15.1852 -20.3956 31.1160 -5.7344 0.0000 -0.0000 -17.1300 -74.6803 45.1387 -68.8698 7.1250 -0.0000 -0.0000 -15.3915 43.7485 -22.0432
34.1300 15.4302 2.0238 133.5270 72.7979 166.1110 0.0000 0.0000 0.0000 -17.4444 -31.7200 -92.9860 17.6983 19.8725 83.2564 0.1860 -16.9383 -13.6526 6.2278 14.6456 45.8895 0.0000 0.0000 0.0000 14.6443 9.5988 -32.8459 -6.3613 -14.7696 46.4151 -3.8825 -0.6060 -37.6254 -0.1120 2.1578 -5.9420 8.3449 0.7156 42.2870 4.5117 6.5717 10.7797 -2.1800 3.6001 -7.6583 -4.0953 -7.4939 -13.3332 4.1176 -9.8541 15.9397 0.9721 -4.5096 7.5076 0.0000 0.0000 0.0000 -44.7749 0.2918 -20.4394 24.6710 -35.8658 -8.0964 -0.0000 0.0000 -6.7768 28.0334 49.7615 22.1197 -7.1250 0.0000 -0.0000 -42.5983 81.0280 -36.1536 0.0000 0.0000 0.0000 44.9381 56.1523 -13.2920 -21.1390 31.9902 -6.1234 0.0000 -0.0000 -17.5090 -73.1701 44.5002 -66.6568 7.1250 -0.0000 -0.0000 -15.1425 42.0894 -21.6778
